# xmcd CD database file
#
# Track frame offsets:
#	150
#	22058
#	40433
#	82369
#	100862
#	117872
#	135756
#	151991
#	177513
#	195036
#	214546
#	232912
#	249415
#	261728
#	284640
#	293332
#	303060
#	324726
#	334721
#
# Disc length: 4665 seconds
#
# Revision: 0
# Processed by: cddbd v1.5.2PL0 Copyright (c) Steve Scherf et al.
# Submitted via: CDex 1.51
#
DISCID=0a123713
DTITLE=Thelonious Monk - Solo 1954-1961 - CD2
DYEAR=2015
DGENRE=Jazz
TTITLE0=All Alone
TTITLE1=I'm Getting Sentimental Over You
TTITLE2=Functional (take 2 official)
TTITLE3=There's Danger In Your Eyes, Cherie (take 1 alternate)
TTITLE4=Blue Monk
TTITLE5=Ruby, My Dear
TTITLE6=Round Lights
TTITLE7=Everything Happens To Me
TTITLE8=Pannonica
TTITLE9=There's Danger In Your Eyes, Cherie (take 2 official)
TTITLE10=You Took The Words Right Out Of My Heart
TTITLE11=Blue Hawk
TTITLE12=Remember
TTITLE13=Reflections
TTITLE14=Sweet Stranger
TTITLE15=Just A Gigolo
TTITLE16=Body and Soul
TTITLE17=Just A Gigolo
TTITLE18=Body and Soul
EXTD=YEAR: 2015
EXTT0=
EXTT1=
EXTT2=
EXTT3=
EXTT4=
EXTT5=
EXTT6=
EXTT7=
EXTT8=
EXTT9=
EXTT10=
EXTT11=
EXTT12=
EXTT13=
EXTT14=
EXTT15=
EXTT16=
EXTT17=
EXTT18=
PLAYORDER=
